<?xml version="1.0" encoding="utf-8"?>
<!-- Generator: Adobe Illustrator 18.1.1, SVG Export Plug-In . SVG Version: 6.00 Build 0)  -->
<!DOCTYPE svg PUBLIC "-//W3C//DTD SVG 1.1//EN" "http://www.w3.org/Graphics/SVG/1.1/DTD/svg11.dtd">
<svg version="1.1" id="Layer_1" xmlns="http://www.w3.org/2000/svg" xmlns:xlink="http://www.w3.org/1999/xlink" x="0px" y="0px"
	 viewBox="0 0 376.6 55.9" enable-background="new 0 0 376.6 55.9" xml:space="preserve">
<g>
	<path fill="#422D3F" d="M7.1,51.3c0,1.2,0,2-0.5,2.7c-0.5,0.7-1.6,1.2-3.1,1.2S1,54.7,0.5,54C0,53.3,0,52.4,0,51.3V6.2
		C0,4,0,2.4,3.6,1.6c1.7-0.4,4.6-0.7,8-0.7c4.2,0,9,0.5,12.8,2.5c4.8,2.5,7.5,6.8,7.5,12.7c0,6.8-3.7,12-10.5,14.7l14.9,20.5
		c1.3,1.8,1,4-2.8,4c-3,0-3.9-1.3-5.2-3.2l-9.7-13.9c-2.6-3.6-3.9-6-3.9-6s-1.7,0.2-4.3,0.2c-2.2,0-3.1-0.2-3.1-0.2V51.3z M7.1,26.4
		c0,0,1.1,0.2,3.2,0.2c8.9,0,14-3.1,14-10.1c0-7.4-5.9-9.5-12.4-9.5c-2.7,0-4.8,0.3-4.8,0.3V26.4z"/>
	<path fill="#422D3F" d="M103.8,51.3c0,1.2,0,2-0.5,2.7c-0.7,1-1.9,1.2-2.9,1.2c-1.4,0-2.4-0.4-3-1.2c-0.5-0.7-0.5-1.6-0.5-2.7V3.8
		c0-2,1.2-3.1,3.3-3.1c2.4,0,3.5,1.3,5.3,3.6l30.2,38V4.8c0-1.2,0-2,0.5-2.7c0.7-1,1.9-1.2,2.9-1.2c1.4,0,2.4,0.4,3,1.2
		c0.5,0.7,0.5,1.6,0.5,2.7v47.6c0,1.9-1.1,3-3.2,3c-2.2,0-3.2-1.2-5.1-3.5l-30.5-38.4V51.3z"/>
	<path fill="#422D3F" d="M200.2,47.7c0,2.6-0.7,3.9-4.9,5.4c-4,1.5-8.5,2.4-13.4,2.4c-15.9,0-28.6-9.3-28.6-27.8
		c0-19.9,14.8-27.6,28.6-27.6c5.2,0,10.3,1.1,14.6,3.4c2.4,1.3,3.4,2.3,3.4,3.7c0,1.6-1.2,3.6-2.9,3.6c-1.4,0-2.7-1.3-5.9-2.6
		c-2.3-0.9-5.8-1.8-9.8-1.8c-9.8,0-20.6,5.5-20.6,20.9c0,14.6,9.6,21.8,21.2,21.8c6.6,0,11.1-2.3,11.1-2.3v-9.4c0-1.2,0-2,0.5-2.7
		c0.5-0.7,1.7-1.2,3.1-1.2c1.5,0,2.7,0.5,3.2,1.2c0.5,0.7,0.5,1.6,0.5,2.7V47.7z"/>
	<path fill="#422D3F" d="M237.5,48.4c1.1,0,1.9,0.1,2.7,0.6c0.7,0.5,1.1,1.3,1.1,2.6c0,1.3-0.4,2.1-1.1,2.6
		c-0.7,0.5-1.6,0.6-2.7,0.6h-22.1c-2.7,0-3.5-1.2-3.5-3.5V4.8c0-1.2,0-2,0.5-2.7c0.5-0.7,1.7-1.2,3.1-1.2c1.5,0,2.7,0.5,3.2,1.2
		c0.5,0.7,0.5,1.6,0.5,2.7v43.6H237.5z"/>
	<path fill="#422D3F" d="M256.4,22.8h13c1.1,0,1.9,0.1,2.7,0.6c0.7,0.5,1.1,1.3,1.1,2.6c0,1.3-0.4,2.1-1.1,2.6
		c-0.7,0.5-1.6,0.6-2.7,0.6h-13v19.2h18.4c1.1,0,1.9,0.1,2.7,0.6c0.7,0.5,1.1,1.3,1.1,2.6c0,1.3-0.4,2.1-1.1,2.6
		c-0.7,0.5-1.6,0.6-2.7,0.6h-22.1c-2.7,0-3.5-1.1-3.5-3.5V4.9c0-2.5,1-3.5,3.5-3.5h19.7c1.1,0,1.9,0.1,2.7,0.6
		c0.7,0.5,1.1,1.3,1.1,2.6c0,1.3-0.4,2.1-1.1,2.6c-0.7,0.5-1.6,0.6-2.7,0.6h-16V22.8z"/>
	<path fill="#E6383A" d="M290.7,55.5c-2.7,0-4.5-1.8-4.5-4.5c0-2.6,1.8-4.4,4.5-4.4c2.6,0,4.4,1.9,4.4,4.4
		C295.1,53.7,293.3,55.5,290.7,55.5z"/>
	<path fill="#E6383A" d="M310.7,51.3c0,1.2,0,2-0.5,2.7c-0.5,0.7-1.7,1.2-3.1,1.2c-1.5,0-2.7-0.5-3.2-1.2c-0.5-0.7-0.5-1.6-0.5-2.7
		V4.8c0-1.2,0-2,0.5-2.7c0.5-0.7,1.7-1.2,3.1-1.2c1.5,0,2.7,0.5,3.2,1.2c0.5,0.7,0.5,1.6,0.5,2.7V51.3z"/>
	<path fill="#E6383A" d="M349,0c16.9,0,27.6,11.6,27.6,27.9c0,16.5-10.9,28-27.8,28c-16.9,0-27.6-11.6-27.6-27.9
		C321.2,11.5,332.1,0,349,0z M349,49.8c12.3,0,20.1-8,20.1-21.8c0-13.9-8-21.9-20.3-21.9c-12.3,0-20.1,8-20.1,21.8
		C328.7,41.8,336.6,49.8,349,49.8z"/>
	<path fill="#422D3F" d="M88.1,50.7L70.3,4.8c-1-2.5-1.8-4.1-4.3-4.1c-2.6,0-3.5,1.7-4.5,4.2L42.9,50.8c-0.4,1.1-0.6,1.7-0.6,2.2
		c0,1.3,0.9,2.2,3.2,2.2c2.8,0,3.5-1.4,4.3-3.5l2.8-7.1h0l0.2-0.6l2.7-6.9h0l3.2-8.3h0l6.9-17.5L73.1,31H62.7
		c-0.2,0-0.3,0.1-0.4,0.2l-2.1,5.4c-0.1,0.2,0.1,0.5,0.4,0.5h14.8l5.6,14.6c0.9,2.4,1.8,3.5,4.4,3.5c2.3,0,3.4-0.9,3.4-2.3
		C88.7,52.4,88.5,51.5,88.1,50.7z"/>
</g>
</svg>
